<svg xmlns="http://www.w3.org/2000/svg" width="256" height="256" viewBox="0 0 100 100"><rect width="100" height="100" rx="20" fill="#e76e70"></rect><path fill="#fff" d="M34.25 34.07L34.25 34.07Q31.19 34.07 28.58 35.11Q25.97 36.14 24.08 38.17Q22.19 40.19 21.11 43.21Q20.03 46.22 20.03 50.09L20.03 50.09Q20.03 57.83 23.90 61.93Q27.77 66.02 34.25 66.02L34.25 66.02Q38.03 66.02 40.55 64.99Q43.07 63.95 45.05 62.60L45.05 62.60Q46.04 63.14 46.67 63.95Q47.30 64.76 47.30 65.93L47.30 65.93Q47.30 67.19 46.31 68.27Q45.32 69.35 43.56 70.16Q41.81 70.97 39.43 71.47Q37.04 71.96 34.25 71.96L34.25 71.96Q29.57 71.96 25.61 70.61Q21.65 69.26 18.77 66.56Q15.89 63.86 14.27 59.77Q12.65 55.67 12.65 50.09L12.65 50.09Q12.65 44.60 14.36 40.51Q16.07 36.41 18.95 33.62Q21.83 30.83 25.75 29.44Q29.66 28.04 34.07 28.04L34.07 28.04Q36.86 28.04 39.25 28.54Q41.63 29.03 43.34 29.93Q45.05 30.83 46.00 31.96Q46.94 33.08 46.94 34.25L46.94 34.25Q46.94 35.33 46.31 36.14Q45.68 36.95 44.69 37.40L44.69 37.40Q42.71 36.05 40.37 35.06Q38.03 34.07 34.25 34.07ZM87.35 59.72L87.35 59.72Q87.35 65.48 83.12 68.72Q78.89 71.96 70.88 71.96L70.88 71.96Q67.46 71.96 64.58 71.38Q61.70 70.79 59.68 69.85Q57.65 68.90 56.53 67.69Q55.40 66.47 55.40 65.21L55.40 65.21Q55.40 64.13 55.99 63.14Q56.57 62.15 57.74 61.43L57.74 61.43Q60.17 63.23 63.41 64.63Q66.65 66.02 70.79 66.02L70.79 66.02Q80.15 66.02 80.15 59.72L80.15 59.72Q80.15 54.59 73.94 53.06L73.94 53.06L66.47 51.08Q60.98 49.64 58.46 46.90Q55.94 44.15 55.94 39.83L55.94 39.83Q55.94 37.49 56.89 35.33Q57.83 33.17 59.81 31.55Q61.79 29.93 64.72 28.99Q67.64 28.04 71.60 28.04L71.60 28.04Q77.90 28.04 81.77 29.89Q85.64 31.73 85.64 34.16L85.64 34.16Q85.64 35.33 85.06 36.23Q84.47 37.13 83.48 37.58L83.48 37.58Q81.86 36.50 78.89 35.24Q75.92 33.98 71.87 33.98L71.87 33.98Q67.82 33.98 65.44 35.51Q63.05 37.04 63.05 39.83L63.05 39.83Q63.05 41.90 64.40 43.34Q65.75 44.78 68.90 45.50L68.90 45.50L75.11 47.03Q81.23 48.56 84.29 51.58Q87.35 54.59 87.35 59.72Z"></path></svg>